%TF.GenerationSoftware,KiCad,Pcbnew,9.0.6*%
%TF.CreationDate,2026-04-11T19:09:29+02:00*%
%TF.ProjectId,AR488_ESP32,41523438-385f-4455-9350-33322e6b6963,rev?*%
%TF.SameCoordinates,Original*%
%TF.FileFunction,Legend,Bot*%
%TF.FilePolarity,Positive*%
%FSLAX46Y46*%
G04 Gerber Fmt 4.6, Leading zero omitted, Abs format (unit mm)*
G04 Created by KiCad (PCBNEW 9.0.6) date 2026-04-11 19:09:29*
%MOMM*%
%LPD*%
G01*
G04 APERTURE LIST*
%ADD10C,0.100000*%
%ADD11C,0.150000*%
%ADD12C,0.120000*%
G04 APERTURE END LIST*
D10*
X129243734Y-70086704D02*
X128767544Y-70086704D01*
X129338972Y-70372419D02*
X129005639Y-69372419D01*
X129005639Y-69372419D02*
X128672306Y-70372419D01*
X127767544Y-70372419D02*
X128100877Y-69896228D01*
X128338972Y-70372419D02*
X128338972Y-69372419D01*
X128338972Y-69372419D02*
X127958020Y-69372419D01*
X127958020Y-69372419D02*
X127862782Y-69420038D01*
X127862782Y-69420038D02*
X127815163Y-69467657D01*
X127815163Y-69467657D02*
X127767544Y-69562895D01*
X127767544Y-69562895D02*
X127767544Y-69705752D01*
X127767544Y-69705752D02*
X127815163Y-69800990D01*
X127815163Y-69800990D02*
X127862782Y-69848609D01*
X127862782Y-69848609D02*
X127958020Y-69896228D01*
X127958020Y-69896228D02*
X128338972Y-69896228D01*
X127338972Y-69991466D02*
X126577068Y-69991466D01*
X125672306Y-69705752D02*
X125672306Y-70372419D01*
X125910401Y-69324800D02*
X126148496Y-70039085D01*
X126148496Y-70039085D02*
X125529449Y-70039085D01*
X125005639Y-69800990D02*
X125100877Y-69753371D01*
X125100877Y-69753371D02*
X125148496Y-69705752D01*
X125148496Y-69705752D02*
X125196115Y-69610514D01*
X125196115Y-69610514D02*
X125196115Y-69562895D01*
X125196115Y-69562895D02*
X125148496Y-69467657D01*
X125148496Y-69467657D02*
X125100877Y-69420038D01*
X125100877Y-69420038D02*
X125005639Y-69372419D01*
X125005639Y-69372419D02*
X124815163Y-69372419D01*
X124815163Y-69372419D02*
X124719925Y-69420038D01*
X124719925Y-69420038D02*
X124672306Y-69467657D01*
X124672306Y-69467657D02*
X124624687Y-69562895D01*
X124624687Y-69562895D02*
X124624687Y-69610514D01*
X124624687Y-69610514D02*
X124672306Y-69705752D01*
X124672306Y-69705752D02*
X124719925Y-69753371D01*
X124719925Y-69753371D02*
X124815163Y-69800990D01*
X124815163Y-69800990D02*
X125005639Y-69800990D01*
X125005639Y-69800990D02*
X125100877Y-69848609D01*
X125100877Y-69848609D02*
X125148496Y-69896228D01*
X125148496Y-69896228D02*
X125196115Y-69991466D01*
X125196115Y-69991466D02*
X125196115Y-70181942D01*
X125196115Y-70181942D02*
X125148496Y-70277180D01*
X125148496Y-70277180D02*
X125100877Y-70324800D01*
X125100877Y-70324800D02*
X125005639Y-70372419D01*
X125005639Y-70372419D02*
X124815163Y-70372419D01*
X124815163Y-70372419D02*
X124719925Y-70324800D01*
X124719925Y-70324800D02*
X124672306Y-70277180D01*
X124672306Y-70277180D02*
X124624687Y-70181942D01*
X124624687Y-70181942D02*
X124624687Y-69991466D01*
X124624687Y-69991466D02*
X124672306Y-69896228D01*
X124672306Y-69896228D02*
X124719925Y-69848609D01*
X124719925Y-69848609D02*
X124815163Y-69800990D01*
X124053258Y-69800990D02*
X124148496Y-69753371D01*
X124148496Y-69753371D02*
X124196115Y-69705752D01*
X124196115Y-69705752D02*
X124243734Y-69610514D01*
X124243734Y-69610514D02*
X124243734Y-69562895D01*
X124243734Y-69562895D02*
X124196115Y-69467657D01*
X124196115Y-69467657D02*
X124148496Y-69420038D01*
X124148496Y-69420038D02*
X124053258Y-69372419D01*
X124053258Y-69372419D02*
X123862782Y-69372419D01*
X123862782Y-69372419D02*
X123767544Y-69420038D01*
X123767544Y-69420038D02*
X123719925Y-69467657D01*
X123719925Y-69467657D02*
X123672306Y-69562895D01*
X123672306Y-69562895D02*
X123672306Y-69610514D01*
X123672306Y-69610514D02*
X123719925Y-69705752D01*
X123719925Y-69705752D02*
X123767544Y-69753371D01*
X123767544Y-69753371D02*
X123862782Y-69800990D01*
X123862782Y-69800990D02*
X124053258Y-69800990D01*
X124053258Y-69800990D02*
X124148496Y-69848609D01*
X124148496Y-69848609D02*
X124196115Y-69896228D01*
X124196115Y-69896228D02*
X124243734Y-69991466D01*
X124243734Y-69991466D02*
X124243734Y-70181942D01*
X124243734Y-70181942D02*
X124196115Y-70277180D01*
X124196115Y-70277180D02*
X124148496Y-70324800D01*
X124148496Y-70324800D02*
X124053258Y-70372419D01*
X124053258Y-70372419D02*
X123862782Y-70372419D01*
X123862782Y-70372419D02*
X123767544Y-70324800D01*
X123767544Y-70324800D02*
X123719925Y-70277180D01*
X123719925Y-70277180D02*
X123672306Y-70181942D01*
X123672306Y-70181942D02*
X123672306Y-69991466D01*
X123672306Y-69991466D02*
X123719925Y-69896228D01*
X123719925Y-69896228D02*
X123767544Y-69848609D01*
X123767544Y-69848609D02*
X123862782Y-69800990D01*
X122481829Y-69848609D02*
X122148496Y-69848609D01*
X122005639Y-70372419D02*
X122481829Y-70372419D01*
X122481829Y-70372419D02*
X122481829Y-69372419D01*
X122481829Y-69372419D02*
X122005639Y-69372419D01*
X121624686Y-70324800D02*
X121481829Y-70372419D01*
X121481829Y-70372419D02*
X121243734Y-70372419D01*
X121243734Y-70372419D02*
X121148496Y-70324800D01*
X121148496Y-70324800D02*
X121100877Y-70277180D01*
X121100877Y-70277180D02*
X121053258Y-70181942D01*
X121053258Y-70181942D02*
X121053258Y-70086704D01*
X121053258Y-70086704D02*
X121100877Y-69991466D01*
X121100877Y-69991466D02*
X121148496Y-69943847D01*
X121148496Y-69943847D02*
X121243734Y-69896228D01*
X121243734Y-69896228D02*
X121434210Y-69848609D01*
X121434210Y-69848609D02*
X121529448Y-69800990D01*
X121529448Y-69800990D02*
X121577067Y-69753371D01*
X121577067Y-69753371D02*
X121624686Y-69658133D01*
X121624686Y-69658133D02*
X121624686Y-69562895D01*
X121624686Y-69562895D02*
X121577067Y-69467657D01*
X121577067Y-69467657D02*
X121529448Y-69420038D01*
X121529448Y-69420038D02*
X121434210Y-69372419D01*
X121434210Y-69372419D02*
X121196115Y-69372419D01*
X121196115Y-69372419D02*
X121053258Y-69420038D01*
X120624686Y-70372419D02*
X120624686Y-69372419D01*
X120624686Y-69372419D02*
X120243734Y-69372419D01*
X120243734Y-69372419D02*
X120148496Y-69420038D01*
X120148496Y-69420038D02*
X120100877Y-69467657D01*
X120100877Y-69467657D02*
X120053258Y-69562895D01*
X120053258Y-69562895D02*
X120053258Y-69705752D01*
X120053258Y-69705752D02*
X120100877Y-69800990D01*
X120100877Y-69800990D02*
X120148496Y-69848609D01*
X120148496Y-69848609D02*
X120243734Y-69896228D01*
X120243734Y-69896228D02*
X120624686Y-69896228D01*
X119719924Y-69372419D02*
X119100877Y-69372419D01*
X119100877Y-69372419D02*
X119434210Y-69753371D01*
X119434210Y-69753371D02*
X119291353Y-69753371D01*
X119291353Y-69753371D02*
X119196115Y-69800990D01*
X119196115Y-69800990D02*
X119148496Y-69848609D01*
X119148496Y-69848609D02*
X119100877Y-69943847D01*
X119100877Y-69943847D02*
X119100877Y-70181942D01*
X119100877Y-70181942D02*
X119148496Y-70277180D01*
X119148496Y-70277180D02*
X119196115Y-70324800D01*
X119196115Y-70324800D02*
X119291353Y-70372419D01*
X119291353Y-70372419D02*
X119577067Y-70372419D01*
X119577067Y-70372419D02*
X119672305Y-70324800D01*
X119672305Y-70324800D02*
X119719924Y-70277180D01*
X118719924Y-69467657D02*
X118672305Y-69420038D01*
X118672305Y-69420038D02*
X118577067Y-69372419D01*
X118577067Y-69372419D02*
X118338972Y-69372419D01*
X118338972Y-69372419D02*
X118243734Y-69420038D01*
X118243734Y-69420038D02*
X118196115Y-69467657D01*
X118196115Y-69467657D02*
X118148496Y-69562895D01*
X118148496Y-69562895D02*
X118148496Y-69658133D01*
X118148496Y-69658133D02*
X118196115Y-69800990D01*
X118196115Y-69800990D02*
X118767543Y-70372419D01*
X118767543Y-70372419D02*
X118148496Y-70372419D01*
X116958019Y-70372419D02*
X116958019Y-69372419D01*
X116958019Y-69753371D02*
X116862781Y-69705752D01*
X116862781Y-69705752D02*
X116672305Y-69705752D01*
X116672305Y-69705752D02*
X116577067Y-69753371D01*
X116577067Y-69753371D02*
X116529448Y-69800990D01*
X116529448Y-69800990D02*
X116481829Y-69896228D01*
X116481829Y-69896228D02*
X116481829Y-70181942D01*
X116481829Y-70181942D02*
X116529448Y-70277180D01*
X116529448Y-70277180D02*
X116577067Y-70324800D01*
X116577067Y-70324800D02*
X116672305Y-70372419D01*
X116672305Y-70372419D02*
X116862781Y-70372419D01*
X116862781Y-70372419D02*
X116958019Y-70324800D01*
X116148495Y-69705752D02*
X115910400Y-70372419D01*
X115672305Y-69705752D02*
X115910400Y-70372419D01*
X115910400Y-70372419D02*
X116005638Y-70610514D01*
X116005638Y-70610514D02*
X116053257Y-70658133D01*
X116053257Y-70658133D02*
X116148495Y-70705752D01*
X114243733Y-69372419D02*
X114243733Y-70086704D01*
X114243733Y-70086704D02*
X114291352Y-70229561D01*
X114291352Y-70229561D02*
X114386590Y-70324800D01*
X114386590Y-70324800D02*
X114529447Y-70372419D01*
X114529447Y-70372419D02*
X114624685Y-70372419D01*
X113624685Y-70372419D02*
X113719923Y-70324800D01*
X113719923Y-70324800D02*
X113767542Y-70277180D01*
X113767542Y-70277180D02*
X113815161Y-70181942D01*
X113815161Y-70181942D02*
X113815161Y-69896228D01*
X113815161Y-69896228D02*
X113767542Y-69800990D01*
X113767542Y-69800990D02*
X113719923Y-69753371D01*
X113719923Y-69753371D02*
X113624685Y-69705752D01*
X113624685Y-69705752D02*
X113481828Y-69705752D01*
X113481828Y-69705752D02*
X113386590Y-69753371D01*
X113386590Y-69753371D02*
X113338971Y-69800990D01*
X113338971Y-69800990D02*
X113291352Y-69896228D01*
X113291352Y-69896228D02*
X113291352Y-70181942D01*
X113291352Y-70181942D02*
X113338971Y-70277180D01*
X113338971Y-70277180D02*
X113386590Y-70324800D01*
X113386590Y-70324800D02*
X113481828Y-70372419D01*
X113481828Y-70372419D02*
X113624685Y-70372419D01*
X112910399Y-70324800D02*
X112815161Y-70372419D01*
X112815161Y-70372419D02*
X112624685Y-70372419D01*
X112624685Y-70372419D02*
X112529447Y-70324800D01*
X112529447Y-70324800D02*
X112481828Y-70229561D01*
X112481828Y-70229561D02*
X112481828Y-70181942D01*
X112481828Y-70181942D02*
X112529447Y-70086704D01*
X112529447Y-70086704D02*
X112624685Y-70039085D01*
X112624685Y-70039085D02*
X112767542Y-70039085D01*
X112767542Y-70039085D02*
X112862780Y-69991466D01*
X112862780Y-69991466D02*
X112910399Y-69896228D01*
X112910399Y-69896228D02*
X112910399Y-69848609D01*
X112910399Y-69848609D02*
X112862780Y-69753371D01*
X112862780Y-69753371D02*
X112767542Y-69705752D01*
X112767542Y-69705752D02*
X112624685Y-69705752D01*
X112624685Y-69705752D02*
X112529447Y-69753371D01*
X111672304Y-70324800D02*
X111767542Y-70372419D01*
X111767542Y-70372419D02*
X111958018Y-70372419D01*
X111958018Y-70372419D02*
X112053256Y-70324800D01*
X112053256Y-70324800D02*
X112100875Y-70229561D01*
X112100875Y-70229561D02*
X112100875Y-69848609D01*
X112100875Y-69848609D02*
X112053256Y-69753371D01*
X112053256Y-69753371D02*
X111958018Y-69705752D01*
X111958018Y-69705752D02*
X111767542Y-69705752D01*
X111767542Y-69705752D02*
X111672304Y-69753371D01*
X111672304Y-69753371D02*
X111624685Y-69848609D01*
X111624685Y-69848609D02*
X111624685Y-69943847D01*
X111624685Y-69943847D02*
X112100875Y-70039085D01*
X111767542Y-69324800D02*
X111910399Y-69467657D01*
X109958018Y-70372419D02*
X110434208Y-70372419D01*
X110434208Y-70372419D02*
X110434208Y-69372419D01*
X109196113Y-69705752D02*
X109196113Y-70372419D01*
X109624684Y-69705752D02*
X109624684Y-70229561D01*
X109624684Y-70229561D02*
X109577065Y-70324800D01*
X109577065Y-70324800D02*
X109481827Y-70372419D01*
X109481827Y-70372419D02*
X109338970Y-70372419D01*
X109338970Y-70372419D02*
X109243732Y-70324800D01*
X109243732Y-70324800D02*
X109196113Y-70277180D01*
X108291351Y-69705752D02*
X108291351Y-70372419D01*
X108719922Y-69705752D02*
X108719922Y-70229561D01*
X108719922Y-70229561D02*
X108672303Y-70324800D01*
X108672303Y-70324800D02*
X108577065Y-70372419D01*
X108577065Y-70372419D02*
X108434208Y-70372419D01*
X108434208Y-70372419D02*
X108338970Y-70324800D01*
X108338970Y-70324800D02*
X108291351Y-70277180D01*
X106719922Y-69848609D02*
X107053255Y-69848609D01*
X107053255Y-70372419D02*
X107053255Y-69372419D01*
X107053255Y-69372419D02*
X106577065Y-69372419D01*
X105672303Y-70372419D02*
X106243731Y-70372419D01*
X105958017Y-70372419D02*
X105958017Y-69372419D01*
X105958017Y-69372419D02*
X106053255Y-69515276D01*
X106053255Y-69515276D02*
X106148493Y-69610514D01*
X106148493Y-69610514D02*
X106243731Y-69658133D01*
X104910398Y-69848609D02*
X105243731Y-69848609D01*
X105243731Y-70372419D02*
X105243731Y-69372419D01*
X105243731Y-69372419D02*
X104767541Y-69372419D01*
X103862779Y-69420038D02*
X103958017Y-69372419D01*
X103958017Y-69372419D02*
X104100874Y-69372419D01*
X104100874Y-69372419D02*
X104243731Y-69420038D01*
X104243731Y-69420038D02*
X104338969Y-69515276D01*
X104338969Y-69515276D02*
X104386588Y-69610514D01*
X104386588Y-69610514D02*
X104434207Y-69800990D01*
X104434207Y-69800990D02*
X104434207Y-69943847D01*
X104434207Y-69943847D02*
X104386588Y-70134323D01*
X104386588Y-70134323D02*
X104338969Y-70229561D01*
X104338969Y-70229561D02*
X104243731Y-70324800D01*
X104243731Y-70324800D02*
X104100874Y-70372419D01*
X104100874Y-70372419D02*
X104005636Y-70372419D01*
X104005636Y-70372419D02*
X103862779Y-70324800D01*
X103862779Y-70324800D02*
X103815160Y-70277180D01*
X103815160Y-70277180D02*
X103815160Y-69943847D01*
X103815160Y-69943847D02*
X104005636Y-69943847D01*
X103529445Y-69372419D02*
X103196112Y-70372419D01*
X103196112Y-70372419D02*
X102862779Y-69372419D01*
X101815159Y-69467657D02*
X101767540Y-69420038D01*
X101767540Y-69420038D02*
X101672302Y-69372419D01*
X101672302Y-69372419D02*
X101434207Y-69372419D01*
X101434207Y-69372419D02*
X101338969Y-69420038D01*
X101338969Y-69420038D02*
X101291350Y-69467657D01*
X101291350Y-69467657D02*
X101243731Y-69562895D01*
X101243731Y-69562895D02*
X101243731Y-69658133D01*
X101243731Y-69658133D02*
X101291350Y-69800990D01*
X101291350Y-69800990D02*
X101862778Y-70372419D01*
X101862778Y-70372419D02*
X101243731Y-70372419D01*
X100624683Y-69372419D02*
X100529445Y-69372419D01*
X100529445Y-69372419D02*
X100434207Y-69420038D01*
X100434207Y-69420038D02*
X100386588Y-69467657D01*
X100386588Y-69467657D02*
X100338969Y-69562895D01*
X100338969Y-69562895D02*
X100291350Y-69753371D01*
X100291350Y-69753371D02*
X100291350Y-69991466D01*
X100291350Y-69991466D02*
X100338969Y-70181942D01*
X100338969Y-70181942D02*
X100386588Y-70277180D01*
X100386588Y-70277180D02*
X100434207Y-70324800D01*
X100434207Y-70324800D02*
X100529445Y-70372419D01*
X100529445Y-70372419D02*
X100624683Y-70372419D01*
X100624683Y-70372419D02*
X100719921Y-70324800D01*
X100719921Y-70324800D02*
X100767540Y-70277180D01*
X100767540Y-70277180D02*
X100815159Y-70181942D01*
X100815159Y-70181942D02*
X100862778Y-69991466D01*
X100862778Y-69991466D02*
X100862778Y-69753371D01*
X100862778Y-69753371D02*
X100815159Y-69562895D01*
X100815159Y-69562895D02*
X100767540Y-69467657D01*
X100767540Y-69467657D02*
X100719921Y-69420038D01*
X100719921Y-69420038D02*
X100624683Y-69372419D01*
X99910397Y-69467657D02*
X99862778Y-69420038D01*
X99862778Y-69420038D02*
X99767540Y-69372419D01*
X99767540Y-69372419D02*
X99529445Y-69372419D01*
X99529445Y-69372419D02*
X99434207Y-69420038D01*
X99434207Y-69420038D02*
X99386588Y-69467657D01*
X99386588Y-69467657D02*
X99338969Y-69562895D01*
X99338969Y-69562895D02*
X99338969Y-69658133D01*
X99338969Y-69658133D02*
X99386588Y-69800990D01*
X99386588Y-69800990D02*
X99958016Y-70372419D01*
X99958016Y-70372419D02*
X99338969Y-70372419D01*
X98481826Y-69372419D02*
X98672302Y-69372419D01*
X98672302Y-69372419D02*
X98767540Y-69420038D01*
X98767540Y-69420038D02*
X98815159Y-69467657D01*
X98815159Y-69467657D02*
X98910397Y-69610514D01*
X98910397Y-69610514D02*
X98958016Y-69800990D01*
X98958016Y-69800990D02*
X98958016Y-70181942D01*
X98958016Y-70181942D02*
X98910397Y-70277180D01*
X98910397Y-70277180D02*
X98862778Y-70324800D01*
X98862778Y-70324800D02*
X98767540Y-70372419D01*
X98767540Y-70372419D02*
X98577064Y-70372419D01*
X98577064Y-70372419D02*
X98481826Y-70324800D01*
X98481826Y-70324800D02*
X98434207Y-70277180D01*
X98434207Y-70277180D02*
X98386588Y-70181942D01*
X98386588Y-70181942D02*
X98386588Y-69943847D01*
X98386588Y-69943847D02*
X98434207Y-69848609D01*
X98434207Y-69848609D02*
X98481826Y-69800990D01*
X98481826Y-69800990D02*
X98577064Y-69753371D01*
X98577064Y-69753371D02*
X98767540Y-69753371D01*
X98767540Y-69753371D02*
X98862778Y-69800990D01*
X98862778Y-69800990D02*
X98910397Y-69848609D01*
X98910397Y-69848609D02*
X98958016Y-69943847D01*
X97338968Y-69372419D02*
X97005635Y-70372419D01*
X97005635Y-70372419D02*
X96672302Y-69372419D01*
X95815159Y-70372419D02*
X96386587Y-70372419D01*
X96100873Y-70372419D02*
X96100873Y-69372419D01*
X96100873Y-69372419D02*
X96196111Y-69515276D01*
X96196111Y-69515276D02*
X96291349Y-69610514D01*
X96291349Y-69610514D02*
X96386587Y-69658133D01*
X95386587Y-70277180D02*
X95338968Y-70324800D01*
X95338968Y-70324800D02*
X95386587Y-70372419D01*
X95386587Y-70372419D02*
X95434206Y-70324800D01*
X95434206Y-70324800D02*
X95386587Y-70277180D01*
X95386587Y-70277180D02*
X95386587Y-70372419D01*
X94719921Y-69372419D02*
X94624683Y-69372419D01*
X94624683Y-69372419D02*
X94529445Y-69420038D01*
X94529445Y-69420038D02*
X94481826Y-69467657D01*
X94481826Y-69467657D02*
X94434207Y-69562895D01*
X94434207Y-69562895D02*
X94386588Y-69753371D01*
X94386588Y-69753371D02*
X94386588Y-69991466D01*
X94386588Y-69991466D02*
X94434207Y-70181942D01*
X94434207Y-70181942D02*
X94481826Y-70277180D01*
X94481826Y-70277180D02*
X94529445Y-70324800D01*
X94529445Y-70324800D02*
X94624683Y-70372419D01*
X94624683Y-70372419D02*
X94719921Y-70372419D01*
X94719921Y-70372419D02*
X94815159Y-70324800D01*
X94815159Y-70324800D02*
X94862778Y-70277180D01*
X94862778Y-70277180D02*
X94910397Y-70181942D01*
X94910397Y-70181942D02*
X94958016Y-69991466D01*
X94958016Y-69991466D02*
X94958016Y-69753371D01*
X94958016Y-69753371D02*
X94910397Y-69562895D01*
X94910397Y-69562895D02*
X94862778Y-69467657D01*
X94862778Y-69467657D02*
X94815159Y-69420038D01*
X94815159Y-69420038D02*
X94719921Y-69372419D01*
D11*
X168921580Y-74268333D02*
X168969200Y-74220714D01*
X168969200Y-74220714D02*
X169016819Y-74077857D01*
X169016819Y-74077857D02*
X169016819Y-73982619D01*
X169016819Y-73982619D02*
X168969200Y-73839762D01*
X168969200Y-73839762D02*
X168873961Y-73744524D01*
X168873961Y-73744524D02*
X168778723Y-73696905D01*
X168778723Y-73696905D02*
X168588247Y-73649286D01*
X168588247Y-73649286D02*
X168445390Y-73649286D01*
X168445390Y-73649286D02*
X168254914Y-73696905D01*
X168254914Y-73696905D02*
X168159676Y-73744524D01*
X168159676Y-73744524D02*
X168064438Y-73839762D01*
X168064438Y-73839762D02*
X168016819Y-73982619D01*
X168016819Y-73982619D02*
X168016819Y-74077857D01*
X168016819Y-74077857D02*
X168064438Y-74220714D01*
X168064438Y-74220714D02*
X168112057Y-74268333D01*
X168112057Y-74649286D02*
X168064438Y-74696905D01*
X168064438Y-74696905D02*
X168016819Y-74792143D01*
X168016819Y-74792143D02*
X168016819Y-75030238D01*
X168016819Y-75030238D02*
X168064438Y-75125476D01*
X168064438Y-75125476D02*
X168112057Y-75173095D01*
X168112057Y-75173095D02*
X168207295Y-75220714D01*
X168207295Y-75220714D02*
X168302533Y-75220714D01*
X168302533Y-75220714D02*
X168445390Y-75173095D01*
X168445390Y-75173095D02*
X169016819Y-74601667D01*
X169016819Y-74601667D02*
X169016819Y-75220714D01*
X163775580Y-125296333D02*
X163823200Y-125248714D01*
X163823200Y-125248714D02*
X163870819Y-125105857D01*
X163870819Y-125105857D02*
X163870819Y-125010619D01*
X163870819Y-125010619D02*
X163823200Y-124867762D01*
X163823200Y-124867762D02*
X163727961Y-124772524D01*
X163727961Y-124772524D02*
X163632723Y-124724905D01*
X163632723Y-124724905D02*
X163442247Y-124677286D01*
X163442247Y-124677286D02*
X163299390Y-124677286D01*
X163299390Y-124677286D02*
X163108914Y-124724905D01*
X163108914Y-124724905D02*
X163013676Y-124772524D01*
X163013676Y-124772524D02*
X162918438Y-124867762D01*
X162918438Y-124867762D02*
X162870819Y-125010619D01*
X162870819Y-125010619D02*
X162870819Y-125105857D01*
X162870819Y-125105857D02*
X162918438Y-125248714D01*
X162918438Y-125248714D02*
X162966057Y-125296333D01*
X162870819Y-126201095D02*
X162870819Y-125724905D01*
X162870819Y-125724905D02*
X163347009Y-125677286D01*
X163347009Y-125677286D02*
X163299390Y-125724905D01*
X163299390Y-125724905D02*
X163251771Y-125820143D01*
X163251771Y-125820143D02*
X163251771Y-126058238D01*
X163251771Y-126058238D02*
X163299390Y-126153476D01*
X163299390Y-126153476D02*
X163347009Y-126201095D01*
X163347009Y-126201095D02*
X163442247Y-126248714D01*
X163442247Y-126248714D02*
X163680342Y-126248714D01*
X163680342Y-126248714D02*
X163775580Y-126201095D01*
X163775580Y-126201095D02*
X163823200Y-126153476D01*
X163823200Y-126153476D02*
X163870819Y-126058238D01*
X163870819Y-126058238D02*
X163870819Y-125820143D01*
X163870819Y-125820143D02*
X163823200Y-125724905D01*
X163823200Y-125724905D02*
X163775580Y-125677286D01*
X150727819Y-74500095D02*
X151537342Y-74500095D01*
X151537342Y-74500095D02*
X151632580Y-74547714D01*
X151632580Y-74547714D02*
X151680200Y-74595333D01*
X151680200Y-74595333D02*
X151727819Y-74690571D01*
X151727819Y-74690571D02*
X151727819Y-74881047D01*
X151727819Y-74881047D02*
X151680200Y-74976285D01*
X151680200Y-74976285D02*
X151632580Y-75023904D01*
X151632580Y-75023904D02*
X151537342Y-75071523D01*
X151537342Y-75071523D02*
X150727819Y-75071523D01*
X150823057Y-75500095D02*
X150775438Y-75547714D01*
X150775438Y-75547714D02*
X150727819Y-75642952D01*
X150727819Y-75642952D02*
X150727819Y-75881047D01*
X150727819Y-75881047D02*
X150775438Y-75976285D01*
X150775438Y-75976285D02*
X150823057Y-76023904D01*
X150823057Y-76023904D02*
X150918295Y-76071523D01*
X150918295Y-76071523D02*
X151013533Y-76071523D01*
X151013533Y-76071523D02*
X151156390Y-76023904D01*
X151156390Y-76023904D02*
X151727819Y-75452476D01*
X151727819Y-75452476D02*
X151727819Y-76071523D01*
D12*
%TO.C,C2*%
X166622000Y-74575580D02*
X166622000Y-74294420D01*
X167642000Y-74575580D02*
X167642000Y-74294420D01*
%TO.C,C5*%
X164336000Y-125322420D02*
X164336000Y-125603580D01*
X165356000Y-125322420D02*
X165356000Y-125603580D01*
%TO.C,U3*%
X123540000Y-86740000D02*
X125190000Y-86740000D01*
X123540000Y-112260000D02*
X123540000Y-86740000D01*
X127190000Y-86740000D02*
X128840000Y-86740000D01*
X128840000Y-86740000D02*
X128840000Y-112260000D01*
X128840000Y-112260000D02*
X123540000Y-112260000D01*
X127190000Y-86740000D02*
G75*
G02*
X125190000Y-86740000I-1000000J0D01*
G01*
%TO.C,U2*%
X165133000Y-71402000D02*
X164898000Y-71402000D01*
X152348000Y-71402000D02*
X152113000Y-71402000D01*
X152113000Y-71402000D02*
X152113000Y-79122000D01*
X165133000Y-79122000D02*
X165133000Y-71402000D01*
X164898000Y-79122000D02*
X165133000Y-79122000D01*
X152113000Y-79122000D02*
X152348000Y-79122000D01*
X152343000Y-70612000D02*
X151873000Y-70952000D01*
X151873000Y-70272000D01*
X152343000Y-70612000D01*
G36*
X152343000Y-70612000D02*
G01*
X151873000Y-70952000D01*
X151873000Y-70272000D01*
X152343000Y-70612000D01*
G37*
%TD*%
M02*
