M48
; DRILL file {KiCad 9.0.6} date 2026-04-11T22:55:05+0200
; FORMAT={-:-/ absolute / metric / decimal}
; #@! TF.CreationDate,2026-04-11T22:55:05+02:00
; #@! TF.GenerationSoftware,Kicad,Pcbnew,9.0.6
; #@! TF.FileFunction,Plated,1,2,PTH
FMAT,2
METRIC
; #@! TA.AperFunction,Plated,PTH,ViaDrill
T1C0.300
; #@! TA.AperFunction,Plated,PTH,ViaDrill
T2C0.500
; #@! TA.AperFunction,Plated,PTH,ComponentDrill
T3C0.600
; #@! TA.AperFunction,Plated,PTH,ComponentDrill
T4C0.800
; #@! TA.AperFunction,Plated,PTH,ComponentDrill
T5C1.000
; #@! TA.AperFunction,Plated,PTH,ComponentDrill
T6C1.300
%
G90
G05
T1
X106.045Y-105.029
X106.172Y-100.584
X112.547Y-91.695
X115.57Y-96.266
X117.348Y-98.552
X118.11Y-88.392
X118.872Y-87.122
X118.872Y-102.108
X119.888Y-104.648
X120.65Y-101.6
X123.952Y-117.348
X124.46Y-93.472
X124.46Y-114.808
X125.222Y-116.84
X126.159Y-90.757
X127.0Y-121.412
X136.145Y-123.189
X137.414Y-102.108
X137.922Y-89.662
X139.558Y-112.217
X139.7Y-85.344
X140.208Y-114.046
X140.97Y-87.376
X148.844Y-72.517
X148.844Y-73.787
X148.971Y-74.93
X153.797Y-76.581
X155.194Y-75.834
X156.337Y-75.184
X157.734Y-74.437
X159.258Y-73.929
X160.528Y-73.279
T2
X101.473Y-107.188
X105.664Y-97.028
X106.426Y-113.03
X127.508Y-125.222
X134.874Y-114.046
X139.954Y-124.968
X152.908Y-78.486
T3
X106.07Y-77.5
X106.07Y-81.7
X108.229Y-77.5
X108.229Y-81.7
X110.388Y-77.5
X110.388Y-81.7
X112.547Y-77.5
X112.547Y-81.7
X114.705Y-77.5
X114.705Y-81.7
X116.865Y-77.5
X116.865Y-81.7
X119.024Y-77.5
X119.024Y-81.7
X121.183Y-77.5
X121.183Y-81.7
X123.341Y-77.5
X123.341Y-81.7
X125.5Y-77.5
X125.5Y-81.7
X127.659Y-77.5
X127.659Y-81.7
X129.818Y-77.5
X129.818Y-81.7
T4
X122.38Y-88.07
X122.38Y-90.61
X122.38Y-93.15
X122.38Y-95.69
X122.38Y-98.23
X122.38Y-100.77
X122.38Y-103.31
X122.38Y-105.85
X122.38Y-108.39
X122.38Y-110.93
X130.0Y-88.07
X130.0Y-90.61
X130.0Y-93.15
X130.0Y-95.69
X130.0Y-98.23
X130.0Y-100.77
X130.0Y-103.31
X130.0Y-105.85
X130.0Y-108.39
X130.0Y-110.93
T5
X147.32Y-84.5
X147.32Y-87.04
X147.32Y-89.58
X147.32Y-92.12
X147.32Y-94.66
X147.32Y-97.2
X147.32Y-99.74
X147.32Y-102.28
X147.32Y-104.82
X147.32Y-107.36
X147.32Y-109.9
X147.32Y-112.44
X147.32Y-114.98
X147.32Y-117.52
X147.32Y-120.06
X147.32Y-122.6
X147.32Y-125.14
X147.32Y-127.68
X170.18Y-84.5
X170.18Y-87.04
X170.18Y-89.58
X170.18Y-92.12
X170.18Y-94.66
X170.18Y-97.2
X170.18Y-99.74
X170.18Y-102.28
X170.18Y-104.82
X170.18Y-107.36
X170.18Y-109.9
X170.18Y-112.44
X170.18Y-114.98
X170.18Y-117.52
X170.18Y-120.06
X170.18Y-122.6
X170.18Y-125.14
X170.18Y-127.68
T6
X96.0Y-88.5
X96.0Y-93.5
T5
G00X95.444Y-79.6
M15
G01X93.444Y-79.6
M16
G05
G00X97.0Y-119.0
M15
G01X97.0Y-121.0
M16
G05
G00X99.0Y-124.7
M15
G01X101.0Y-124.7
M16
G05
G00X103.0Y-119.0
M15
G01X103.0Y-121.0
M16
G05
G00X142.444Y-79.6
M15
G01X140.444Y-79.6
M16
G05
M30
